<svg xmlns="http://www.w3.org/2000/svg" width="900" height="330" viewBox="0 0 900 330" role="img" aria-labelledby="title description">
  <title id="title">TrustCode System GitHub organization statistics</title>
  <desc id="description">9 public repositories, 2 stars, 0 forks, and 2 open issues.</desc>
  <style>
    .panel { fill: #ffffff; stroke: #d0d5dd; }
    .title { fill: #101828; font: 700 24px "Segoe UI", Arial, sans-serif; }
    .subtitle, .metric-label, .legend, .updated { fill: #667085; font: 500 13px "Segoe UI", Arial, sans-serif; }
    .metric-value { fill: #101828; font: 700 28px "Segoe UI", Arial, sans-serif; }
    .metric-value.accent, .section-title { fill: #155eef; }
    .section-title { font: 700 16px "Segoe UI", Arial, sans-serif; }
    .repo { fill: #344054; font: 600 14px "Segoe UI", Arial, sans-serif; }
    @media (prefers-color-scheme: dark) {
      .panel { fill: #0d1117; stroke: #30363d; }
      .title, .metric-value { fill: #f0f6fc; }
      .subtitle, .metric-label, .legend, .updated { fill: #8b949e; }
      .repo { fill: #c9d1d9; }
      .metric-value.accent, .section-title { fill: #58a6ff; }
    }
  </style>
  <rect class="panel" x="1" y="1" width="898" height="328" rx="14" />
  <text class="title" x="42" y="48">TrustCode System Limited</text>
  <text class="subtitle" x="42" y="72">Live public organization snapshot</text>
  <text class="updated" x="858" y="48" text-anchor="end">Updated Jun 14, 2026</text>
  <g transform="translate(42 0)">
      <text class="metric-value accent" x="0" y="108">9</text>
      <text class="metric-label" x="0" y="132">Public repositories</text>
    </g>
  <g transform="translate(170 0)">
      <text class="metric-value" x="0" y="108">2</text>
      <text class="metric-label" x="0" y="132">Stars earned</text>
    </g>
  <g transform="translate(290 0)">
      <text class="metric-value" x="0" y="108">0</text>
      <text class="metric-label" x="0" y="132">Forks</text>
    </g>
  <g transform="translate(390 0)">
      <text class="metric-value" x="0" y="108">2</text>
      <text class="metric-label" x="0" y="132">Open issues</text>
    </g>
  <line x1="42" y1="150" x2="858" y2="150" stroke="#d0d5dd" stroke-opacity=".65" />
  <g transform="translate(42 190)">
    <text class="section-title" x="0" y="0">Featured projects</text>
    <text class="repo" x="0" y="30">1. PetroBrain Web</text><text class="repo" x="0" y="59">2. Atlas HR</text><text class="repo" x="0" y="88">3. The Thesis Desk</text>
  </g>
  <g transform="translate(470 190)">
      <text class="section-title" x="0" y="0">Top languages</text>
      <clipPath id="language-bar"><rect x="0" y="0" width="380" height="12" rx="6" /></clipPath>
      <g transform="translate(0 22)" clip-path="url(#language-bar)"><rect x="0.0" y="0" width="275.6" height="12" fill="#155eef" /><rect x="275.6" y="0" width="63.2" height="12" fill="#7f56d9" /><rect x="338.8" y="0" width="34.5" height="12" fill="#12b76a" /><rect x="373.3" y="0" width="4.3" height="12" fill="#f79009" /><rect x="377.6" y="0" width="2.4" height="12" fill="#ef4444" /></g>
      <g transform="translate(0 22)"><g transform="translate(0 32)">
        <circle cx="5" cy="5" r="5" fill="#155eef" />
        <text class="legend" x="17" y="10">TypeScript 73%</text>
      </g><g transform="translate(132 32)">
        <circle cx="5" cy="5" r="5" fill="#7f56d9" />
        <text class="legend" x="17" y="10">Python 17%</text>
      </g><g transform="translate(264 32)">
        <circle cx="5" cy="5" r="5" fill="#12b76a" />
        <text class="legend" x="17" y="10">MDX 9%</text>
      </g><g transform="translate(0 60)">
        <circle cx="5" cy="5" r="5" fill="#f79009" />
        <text class="legend" x="17" y="10">PLpgSQL 1%</text>
      </g><g transform="translate(132 60)">
        <circle cx="5" cy="5" r="5" fill="#ef4444" />
        <text class="legend" x="17" y="10">CSS 1%</text>
      </g></g>
    </g>
  <text class="updated" x="42" y="305">github.com/Trust-Code-System</text>
</svg>